<?xml version="1.0" encoding="utf-8"?>
<!-- Generator: Adobe Illustrator 16.0.2, SVG Export Plug-In . SVG Version: 6.00 Build 0)  -->
<!DOCTYPE svg PUBLIC "-//W3C//DTD SVG 1.1//EN" "http://www.w3.org/Graphics/SVG/1.1/DTD/svg11.dtd">
<svg version="1.1" id="Layer_1" xmlns="http://www.w3.org/2000/svg" xmlns:xlink="http://www.w3.org/1999/xlink" x="0px" y="0px"
	 width="200px" height="200px" viewBox="0 0 200 200" enable-background="new 0 0 200 200" xml:space="preserve">
<g id="LOGO_HEADLINER">
	<g>
		<rect x="0" fill="#668CB2" width="200" height="200"/>
		<g>
			<g>
				<path fill="#FFFFFF" d="M80.511,127.107c0,2.959,0,5.902,0,8.903c-0.334-0.085-0.597-0.151-0.922-0.235c0-2.864,0-5.709,0-8.586
					c-1.094-0.056-2.125,0.059-3.223-0.082c0.103-0.321,0.186-0.578,0.284-0.885c0.962,0,1.911,0,2.92,0c0-0.869,0-1.68,0-2.539
					c0.304-0.086,0.563-0.16,0.901-0.254c0.084,0.914-0.012,1.783,0.066,2.727c4.139-0.542,8.023-1.524,11.235-4.448
					c-2.487-2.363-4.389-5.076-5.984-8.026c-0.637,0.262-1.22,0.514-1.813,0.742c-3.51,1.354-7.146,1.938-10.901,1.71
					c-3.078-0.187-6.021-0.928-8.785-2.309c-0.374-0.187-0.65-0.147-1,0.018c-3.364,1.587-6.849,2.828-10.499,3.571
					c-1.897,0.387-3.811,0.625-5.75,0.688c-2.853,0.094-5.64-0.228-8.379-1.052c-0.527-0.157-1.144-0.026-1.719-0.016
					c-6.183,0.118-11.34-1.918-14.92-7.179c-1.413-2.076-2.2-4.412-2.579-6.889c-0.272-1.781-0.317-3.57-0.14-5.363
					c0.011-0.119,0.001-0.237,0.001-0.41c-0.303-0.041-0.593-0.075-0.882-0.115c-1.864-0.258-3.664-0.76-5.412-1.453
					c-1.781-0.707-3.521-1.499-5.186-2.448c-0.329-0.188-0.647-0.394-0.952-0.616c-0.072-0.053-0.121-0.226-0.089-0.306
					c0.033-0.083,0.179-0.17,0.273-0.168c0.153,0.002,0.31,0.063,0.458,0.118c3.533,1.259,7.172,1.997,10.915,2.229
					c0.355,0.022,0.709,0.049,1.084,0.074c0.355-1.809,0.703-3.576,1.06-5.393c-0.265-0.106-0.568-0.201-0.846-0.344
					c-1.276-0.654-2.586-1.254-3.807-2.002c-1.699-1.039-3.33-2.189-4.985-3.3c-0.184-0.124-0.497-0.25-0.315-0.542
					c0.177-0.283,0.429-0.074,0.629,0.032c2.492,1.326,5.126,2.295,7.828,3.084c0.757,0.222,1.553,0.313,2.317,0.46
					c0.621-1.393,1.21-2.715,1.826-4.095c-0.43-0.437-0.889-0.904-1.349-1.37c-0.308-0.313-0.628-0.614-0.918-0.941
					c-0.12-0.138-0.268-0.348-0.241-0.494c0.043-0.234,0.311-0.183,0.507-0.187c1.156-0.026,2.312-0.069,3.467-0.072
					c0.395-0.001,0.646-0.128,0.893-0.445c3.636-4.655,8.404-7.418,14.196-8.464c3.471-0.627,6.947-0.59,10.413-0.012
					c1.687,0.281,3.353,0.693,5.021,1.073c0.388,0.088,0.745,0.049,1.118-0.026c3.771-0.755,7.577-1.074,11.418-0.855
					c2.939,0.167,5.819,0.666,8.565,1.778c1.111,0.45,2.186,0.977,3.151,1.697c1.923,1.436,3.025,3.406,3.634,5.682
					c0.548,2.049,0.626,4.138,0.417,6.233c-0.547,5.48-2.634,10.398-5.614,14.967c-2.641,4.049-5.886,7.534-9.884,10.287
					c-0.491,0.34-0.994,0.66-1.49,0.991c-0.013,0.008-0.016,0.034-0.055,0.127c0.449,0.108,0.885,0.229,1.326,0.32
					c2.617,0.543,5.231,0.435,7.84-0.066c3.985-0.767,7.633-2.373,11.09-4.457c0.804-0.485,0.857-0.813,1.368,0.437
					c1.19,2.916,2.69,5.65,4.738,8.061c1.195,1.407,2.544,2.643,4.117,3.621c3.092,1.926,6.425,2.523,9.979,1.719
					c3.77-0.853,6.85-2.934,9.609-5.576c-0.113,0.043-0.228,0.08-0.339,0.127c-0.347,0.151-0.685,0.323-1.038,0.459
					c-1.185,0.455-2.341,0.354-3.466-0.213c-1.164-0.588-2.005-1.496-2.612-2.632c-0.716-1.339-1.06-2.788-1.209-4.286
					c-0.339-3.422,0.18-6.761,1.028-10.057c0.396-1.541,0.89-3.059,1.353-4.631c0.205,0.021,0.365,0.007,0.502,0.056
					c1.775,0.651,3.572,0.745,5.399,0.236c0.136-0.039,0.341-0.04,0.438,0.037c0.182,0.143,0.045,0.325-0.051,0.477
					c-0.311,0.488-0.636,0.966-0.935,1.461c-2.071,3.44-3.634,7.089-4.442,11.036c-0.248,1.214-0.397,2.442-0.343,3.684
					c0.015,0.33,0.075,0.679,0.202,0.983c0.344,0.833,0.971,1.097,1.788,0.72c0.463-0.214,0.922-0.498,1.29-0.847
					c0.634-0.603,1.242-1.243,1.779-1.931c1.768-2.26,3.134-4.764,4.285-7.377c0.81-1.84,1.496-3.735,2.221-5.61
					c0.252-0.651,0.212-0.646,0.873-0.604c1.404,0.088,2.785-0.097,4.131-0.51c0.584-0.18,0.764-0.039,0.638,0.584
					c-0.202,0.994-0.411,1.989-0.659,2.975c-1.248,4.957-3.057,9.688-5.738,14.058c-1.892,3.083-4.145,5.856-6.994,8.115
					c-2.199,1.741-4.622,3.052-7.368,3.7c-3.831,0.906-7.478,0.351-10.951-1.457c-1.207-0.629-2.326-1.391-3.377-2.254
					c-0.152-0.125-0.309-0.246-0.449-0.357c-0.065,0.014-0.116,0.007-0.139,0.029c-1.822,1.762-4.042,2.808-6.418,3.578
					c-1.618,0.523-3.279,0.836-4.963,1.049C80.837,127.047,80.705,127.075,80.511,127.107z M60.106,108.257
					c0.144-0.084,0.182-0.099,0.213-0.125c0.091-0.077,0.181-0.155,0.27-0.237c2.96-2.67,5.252-5.828,6.81-9.498
					c1.784-4.207,2.458-8.564,1.579-13.092c-0.618-3.186-1.996-6-4.277-8.337c-2.496-2.557-5.582-3.982-9.047-4.66
					c-0.15-0.029-0.315-0.015-0.467,0.013c-2.051,0.379-4.009,1.026-5.841,2.033c-2.456,1.347-4.59,3.106-6.466,5.168
					c-5.342,5.875-8.703,12.719-9.943,20.58c-0.416,2.637-0.454,5.277,0.03,7.912c0.372,2.023,1.043,3.926,2.281,5.596
					c0.808,1.09,1.799,1.971,3.026,2.566c0.191,0.094,0.415,0.194,0.615,0.18c1.231-0.095,2.471-0.15,3.687-0.349
					c5.612-0.909,10.755-3.024,15.483-6.166c0.109-0.073,0.205-0.167,0.338-0.278c-0.187-0.207-0.345-0.383-0.5-0.56
					c-2.743-3.112-4.358-6.731-4.87-10.845c-0.063-0.503-0.018-0.559,0.489-0.688c0.763-0.193,1.458-0.533,2.085-1.006
					c0.236-0.179,0.432-0.412,0.66-0.604c0.082-0.068,0.245-0.146,0.304-0.11c0.097,0.06,0.16,0.201,0.2,0.321
					c0.029,0.088-0.001,0.197-0.006,0.296c-0.067,1.337-0.03,2.67,0.146,3.999c0.28,2.113,0.872,4.131,1.946,5.984
					C59.227,107.004,59.677,107.611,60.106,108.257z M20.145,94.51c4.914,0.1,9.632-0.587,14.252-2.318
					c-2.288-0.406-4.507-0.734-6.695-1.207c-2.188-0.474-4.345-1.092-6.56-1.657C20.695,91.034,20.337,92.715,20.145,94.51z
					 M22.069,86.438c0.633,0.141,13.078-0.812,14.421-1.149c-4.25-0.834-8.499-1.668-12.776-2.507
					C23.052,83.969,22.522,85.18,22.069,86.438z M41.684,79.024c0.007-0.038,0.013-0.077,0.02-0.115
					c-0.086-0.029-0.171-0.064-0.26-0.085c-0.773-0.184-1.547-0.368-2.322-0.549c-3.176-0.742-6.354-1.478-9.526-2.231
					c-0.326-0.078-0.574-0.061-0.808,0.189c-0.844,0.899-1.697,1.789-2.54,2.688c-0.083,0.088-0.12,0.219-0.21,0.392
					C31.306,79.215,36.494,79.12,41.684,79.024z M31.83,99.075c-3.856-1.458-7.901-1.573-12.003-1.861c0,0.976,0,1.861,0,2.797
					C23.901,100.707,27.9,100.396,31.83,99.075z"/>
				<path fill="#FFFFFF" d="M147.516,109.139c-0.146,0.154-0.292,0.31-0.436,0.465c-2.127,2.299-4.658,3.92-7.75,4.58
					c-2.016,0.428-4.012,0.346-5.923-0.473c-2.933-1.255-4.595-3.553-5.177-6.635c-0.583-3.092,0.136-5.973,1.583-8.707
					c0.213-0.405,0.458-0.792,0.715-1.23c-0.088-0.131-0.185-0.274-0.282-0.418c-0.472-0.691-0.94-1.385-1.416-2.074
					c-0.182-0.264-0.22-0.519,0.041-0.744c0.555-0.483,1.1-0.983,1.687-1.426c0.442-0.334,0.61-0.236,0.827,0.282
					c0.285,0.677,0.595,1.341,0.938,2.11c0.224-0.202,0.366-0.324,0.502-0.454c1.812-1.716,3.886-2.981,6.298-3.651
					c0.943-0.263,1.897-0.373,2.893-0.248c1.674,0.209,3.574,1.846,3.679,4.135c0.127,2.744-1.162,4.75-3.41,6.162
					c-1.88,1.182-3.932,1.209-5.989,0.537c-0.881-0.287-1.705-0.744-2.588-1.141c-0.01,0.011-0.07,0.064-0.105,0.131
					c-0.963,1.717-1.561,3.543-1.532,5.521c0.011,0.75,0.19,1.496,0.297,2.244c0.084,0.59,0.437,1.006,0.884,1.367
					c1.36,1.098,2.92,1.313,4.576,1.002c1.754-0.33,3.23-1.221,4.542-2.4c1.245-1.122,2.233-2.442,2.931-3.965
					c0.211-0.459,0.455-0.654,0.99-0.631c0.713,0.031,1.43-0.092,2.146-0.117c0.369-0.014,0.553-0.156,0.683-0.518
					c0.88-2.455,2.418-4.427,4.496-5.982c1.394-1.041,2.933-1.769,4.659-2.059c1.033-0.174,2.066-0.174,3.079,0.122
					c2.229,0.65,3.524,2.162,3.964,4.414c0.36,1.847-0.021,3.606-0.753,5.304c-0.181,0.42-0.396,0.827-0.624,1.225
					c-0.216,0.375-0.34,0.419-0.732,0.279c-1.051-0.371-2.102-0.748-3.146-1.137c-0.508-0.189-0.52-0.386-0.093-0.738
					c1.454-1.205,2.043-2.75,1.768-4.615c-0.031-0.213-0.116-0.426-0.213-0.618c-0.424-0.839-1.267-1.128-2.056-0.624
					c-0.65,0.416-1.275,0.898-1.823,1.441c-2.062,2.041-3.354,4.535-4.16,7.295c-0.528,1.813-0.769,3.664-0.606,5.556
					c0.076,0.877,0.246,1.735,0.576,2.556c0.397,0.983,1.215,1.409,2.254,1.188c0.695-0.148,1.311-0.466,1.893-0.859
					c1.338-0.903,2.418-2.073,3.396-3.343c0.315-0.41,0.604-0.842,0.904-1.266c0.258-0.361,0.283-0.377,0.682-0.225
					c1.147,0.438,2.32,0.541,3.523,0.292c0.039-0.009,0.083-0.03,0.116-0.021c0.16,0.047,0.365,0.062,0.461,0.17
					c0.066,0.076,0.026,0.306-0.036,0.431c-0.528,1.034-1.174,1.992-1.933,2.871c-1.701,1.976-3.731,3.472-6.26,4.215
					c-1.785,0.526-3.578,0.576-5.349-0.049c-2.353-0.832-3.884-2.503-4.779-4.794c-0.475-1.219-0.69-2.491-0.696-3.8
					c0-0.298,0-0.595,0-0.892C147.59,109.169,147.553,109.152,147.516,109.139z M135.486,97.838c1.607,0.805,3.189,1.139,4.747,0.1
					c1.397-0.932,1.837-2.362,1.862-3.985C139.904,94.24,136.789,96.07,135.486,97.838z"/>
				<path fill="#FFFFFF" d="M176.219,94.077c-0.29,0.448-0.596,0.888-0.869,1.347c-1.415,2.371-2.485,4.902-3.461,7.477
					c-0.459,1.211-0.945,2.412-1.439,3.607c-0.128,0.311-0.32,0.598-0.508,0.877c-0.17,0.254-0.42,0.368-0.729,0.262
					c-0.914-0.316-1.854-0.446-2.819-0.414c-0.3,0.012-0.425-0.14-0.387-0.463c0.039-0.316,0.114-0.627,0.181-0.938
					c0.591-2.771,0.978-5.571,1.198-8.396c0.169-2.168,0.26-4.34,0.182-6.513c-0.125-3.513-0.471-6.998-1.536-10.374
					c-0.367-1.162-0.805-2.299-1.475-3.323c-0.348-0.53-0.748-1.037-1.191-1.49c-0.681-0.695-1.515-1.093-2.521-1.027
					c-0.1,0.006-0.218,0.032-0.295-0.011c-0.109-0.059-0.249-0.164-0.265-0.266c-0.015-0.103,0.082-0.256,0.175-0.331
					c0.104-0.081,0.257-0.102,0.391-0.142c1.431-0.429,2.859-0.864,4.294-1.283c0.782-0.228,1.499-0.048,2.147,0.421
					c0.526,0.381,0.916,0.884,1.24,1.44c0.722,1.237,1.132,2.588,1.446,3.973c0.502,2.223,0.784,4.479,0.844,6.754
					c0.062,2.291,0.063,4.582,0.061,6.875c-0.001,0.975-0.083,1.948-0.135,3.053c0.139-0.213,0.225-0.325,0.288-0.449
					c0.415-0.805,0.927-1.537,1.593-2.153c1.589-1.467,3.433-1.874,5.489-1.259c0.995,0.297,1.677,0.924,1.956,1.984
					c0.403,1.533,0.553,3.097,0.683,4.666c0.165,2.008,0.323,4.02,0.971,5.942c0.252,0.75,0.644,1.453,0.979,2.173
					c0.146,0.312,0.396,0.504,0.745,0.523c0.413,0.021,0.841,0.09,1.237,0.011c1.375-0.274,2.589-0.905,3.651-1.821
					s1.979-1.967,2.798-3.104c0.083-0.115,0.24-0.271,0.337-0.255c0.114,0.019,0.239,0.19,0.289,0.323
					c0.47,1.25,0.928,2.502,1.38,3.76c0.146,0.408,0.119,0.48-0.234,0.763c-2.175,1.737-4.59,2.746-7.439,2.597
					c-1.772-0.092-3.417-0.506-4.912-1.479c-1.275-0.83-2.014-2.077-2.655-3.396c-0.628-1.293-0.839-2.695-0.977-4.106
					c-0.17-1.744-0.312-3.492-0.468-5.238c-0.018-0.192-0.061-0.382-0.092-0.573C176.316,94.093,176.268,94.085,176.219,94.077z"/>
				<path fill="#FFFFFF" d="M91.04,102.609c0.396,0.142,0.706,0.035,0.966-0.149c0.47-0.333,0.942-0.672,1.358-1.067
					c1.102-1.051,2.007-2.27,2.858-3.524c2.255-3.33,4.089-6.882,5.554-10.626c0.049-0.127,0.109-0.25,0.146-0.337
					c1.264,0.053,2.488,0.102,3.711,0.161c0.061,0.002,0.117,0.094,0.201,0.166c-0.091,0.166-0.172,0.318-0.254,0.471
					c-1.963,3.632-3.785,7.328-5.19,11.217c-0.508,1.407-0.943,2.835-1.192,4.313c-0.059,0.351-0.082,0.705-0.12,1.053
					c0.507,0.339,0.987,0.253,1.466,0.085c0.593-0.208,1.087-0.579,1.542-1.004c0.854-0.8,1.498-1.755,2.031-2.789
					c0.055-0.106,0.096-0.222,0.158-0.322c0.157-0.249,0.326-0.249,0.503-0.008c0.011,0.015,0.019,0.036,0.027,0.053
					c0.38,0.679,0.755,1.359,1.143,2.033c0.134,0.233,0.138,0.438-0.015,0.665c-1.546,2.299-3.546,3.977-6.307,4.605
					c-0.626,0.143-1.27,0.158-1.899,0.039c-1.327-0.252-2.224-1.016-2.627-2.322c-0.035-0.114-0.067-0.229-0.104-0.342
					c-0.006-0.017-0.027-0.026-0.086-0.082c-0.137,0.105-0.29,0.215-0.434,0.336c-0.767,0.643-1.574,1.226-2.501,1.617
					c-0.705,0.299-1.43,0.488-2.208,0.379c-0.935-0.131-1.616-0.639-2.117-1.412c-0.565-0.873-0.814-1.854-0.951-2.869
					c-0.292-2.157-0.082-4.297,0.291-6.424c0.655-3.728,1.842-7.293,3.347-10.756c0.208-0.481,0.215-0.482,0.703-0.326
					c1.518,0.49,3.061,0.717,4.653,0.461c0.16-0.025,0.385-0.02,0.494,0.072c0.189,0.161,0.033,0.367-0.064,0.537
					c-0.972,1.697-1.813,3.458-2.541,5.273c-1.092,2.726-1.971,5.514-2.395,8.429C91.07,100.998,90.938,101.785,91.04,102.609z"/>
				<path fill="#FFFFFF" d="M140.713,76.975c-1.89-0.039-3.455-0.495-4.826-1.517c-0.719-0.535-1.414-1.101-2.118-1.656
					c-0.109-0.086-0.214-0.182-0.304-0.288c-0.293-0.344-0.237-0.581,0.164-0.793c0.527-0.281,1.058-0.555,1.568-0.862
					c0.289-0.173,0.546-0.398,0.809-0.61c0.353-0.285,0.426-0.266,0.703,0.109c0.295,0.399,0.592,0.8,0.933,1.16
					c0.243,0.257,0.545,0.466,0.844,0.661c0.538,0.352,1.104,0.451,1.761,0.294c2.334-0.559,4.385-1.659,6.24-3.147
					c1.9-1.523,3.458-3.351,4.77-5.394c0.129-0.201,0.25-0.408,0.381-0.608c0.289-0.438,0.43-0.446,0.732-0.014
					c0.993,1.417,2.235,2.59,3.575,3.668c0.108,0.087,0.222,0.17,0.329,0.257c0.391,0.312,0.416,0.457,0.037,0.801
					c-0.854,0.777-1.701,1.567-2.602,2.29c-3.113,2.503-6.586,4.313-10.473,5.292c-0.48,0.122-0.975,0.207-1.466,0.275
					C141.358,76.95,140.938,76.958,140.713,76.975z"/>
				<path fill="#FFFFFF" d="M152.858,83.611c-0.088,0.459-0.344,0.837-0.675,1.156c-1.348,1.305-3.057,1.881-4.924,1.012
					c-0.807-0.377-1.558-0.879-2.313-1.357c-0.588-0.372-1.161-0.775-1.713-1.199c-1.01-0.779-2.116-0.832-3.288-0.502
					c-1.109,0.313-2.098,0.863-3.006,1.561c-1.525,1.172-2.738,2.604-3.594,4.335c-0.287,0.582-0.328,0.597-0.9,0.311
					c-1.693-0.845-3.385-1.694-5.077-2.543c-0.071-0.036-0.145-0.069-0.212-0.11c-0.369-0.226-0.4-0.379-0.086-0.692
					c0.579-0.577,1.156-1.157,1.77-1.697c1.543-1.36,3.279-2.384,5.271-2.964c2.217-0.646,4.379-0.449,6.499,0.374
					c0.815,0.315,1.579,0.763,2.392,1.087c1.789,0.717,3.508,0.614,5.086-0.572c0.453-0.342,0.756-0.809,0.987-1.33
					c0.15-0.34,0.363-0.356,0.568-0.062c0.838,1.21,1.837,2.252,3.091,3.039C152.78,83.486,152.808,83.548,152.858,83.611z"/>
				<path fill="#FFFFFF" d="M142.381,129.537c-0.168-0.662-0.287-0.752-0.904-0.714c-0.893,0.055-1.287,0.47-1.289,1.362
					c-0.003,1.098-0.004,2.193,0,3.291c0.005,0.978,0.346,1.316,1.335,1.336c0.358,0.006,0.718,0.006,1.077,0.002
					c0.6-0.008,0.808-0.203,0.928-0.916c-0.672,0-1.335,0-1.995,0c-0.006-0.528,0.054-0.633,0.437-0.67
					c0.337-0.03,0.677-0.015,1.016-0.018c0.234-0.002,0.471,0,0.73,0c0.025-0.17,0.058-0.284,0.058-0.396
					c0-0.526-0.09-0.635-0.608-0.676c-0.336-0.027-0.677-0.021-1.016-0.033c-0.193-0.008-0.385-0.021-0.576-0.033
					c0.01-0.502,0.083-0.641,0.456-0.655c0.696-0.028,1.396-0.028,2.093,0c0.371,0.015,0.522,0.187,0.555,0.58
					c0.029,0.373,0.006,0.749,0.006,1.169c0.854,0,1.689,0,2.595,0c-1.722-0.895-2.351-1.954-1.995-3.277
					c0.328-1.221,1.457-2.06,2.66-1.979c1.229,0.083,2.236,0.992,2.43,2.188c0.215,1.346-0.488,2.406-2.091,3.035
					c0.206,0.037,0.324,0.073,0.443,0.076c0.498,0.012,0.997,0.001,1.495,0.018c0.332,0.012,0.563,0.156,0.568,0.623
					c-0.226,0-0.436,0-0.646,0c-1.674,0.01-3.35,0.031-5.023,0.023c-0.396-0.001-0.609,0.129-0.758,0.506
					c-0.377,0.956-1.08,1.43-2.137,1.377c-0.696-0.035-1.396,0.003-2.092-0.01c-0.684-0.014-0.85-0.18-0.853-0.857
					c-0.007-1.576,0.042-3.151-0.016-4.725c-0.054-1.493,0.866-2.105,2.155-2.262c0.321-0.039,0.674,0.045,0.992,0.143
					c0.217,0.067,0.42,0.229,0.586,0.393c0.299,0.293,0.354,0.598,0.205,0.861C143.017,129.62,142.731,129.621,142.381,129.537z
					 M147.861,128.846c-0.949-0.022-1.695,0.668-1.73,1.604c-0.037,0.965,0.692,1.735,1.651,1.747
					c0.933,0.011,1.687-0.711,1.716-1.637C149.524,129.643,148.783,128.867,147.861,128.846z"/>
				<path fill="#FFFFFF" d="M66.492,129.57c-0.143,0.1-0.251,0.183-0.367,0.254c-0.169,0.104-0.343,0.197-0.533,0.307
					c-0.069-0.101-0.139-0.173-0.175-0.261c-0.329-0.784-0.993-0.984-1.751-0.995c-1.375-0.02-2.628,0.971-2.924,2.292
					c-0.312,1.397,0.359,2.797,1.626,3.394c1.273,0.601,2.806,0.225,3.657-0.889c0.372-0.486,0.476-1.042,0.467-1.633
					c-0.003-0.195,0-0.389,0-0.645c0.69,0,1.36,0,2.07,0c0.022-0.209,0.049-0.359,0.052-0.512c0.005-0.339-0.011-0.678-0.003-1.017
					c0.039-1.688,1.87-2.241,2.91-1.714c0.722,0.365,1.036,1.089,0.755,1.916c-0.307-0.065-0.623-0.133-0.903-0.191
					c-0.036-0.102-0.064-0.141-0.059-0.173c0.086-0.608-0.133-0.867-0.725-0.817c-0.629,0.053-1.128,0.453-1.061,1.114
					c0.044,0.429,0.009,0.867,0.009,1.362c0.772,0,1.481,0,2.311,0c-0.146,0.359-0.25,0.623-0.376,0.936c-0.614,0-1.224,0-1.893,0
					c-0.059,0.639-0.101,1.229,0.003,1.811c0.085,0.483,0.488,0.757,1.006,0.764c0.729,0.011,1.511-0.613,1.753-1.402
					c0.035-0.113,0.059-0.229,0.096-0.373c0.133-0.033,0.263-0.07,0.395-0.099c0.134-0.03,0.27-0.053,0.432-0.084
					c0.018,0.117,0.049,0.212,0.045,0.306c-0.062,1.305-1.396,2.575-2.701,2.576c-1.127,0.001-1.971-0.818-1.992-1.945
					c-0.009-0.494-0.001-0.986-0.001-1.51c-0.379,0-0.691,0-1.042,0c-0.047,0.161-0.099,0.327-0.144,0.496
					c-0.473,1.771-2.104,3-3.897,2.938c-1.812-0.063-3.382-1.365-3.709-3.166c-0.279-1.538,0.197-2.857,1.441-3.822
					c1.221-0.947,2.584-1.088,4.002-0.471C65.806,128.553,66.23,128.941,66.492,129.57z"/>
				<path fill="#FFFFFF" d="M166.079,134.393c0.062,0.07,0.097,0.118,0.14,0.158c0.359,0.34,0.555,0.348,0.781-0.093
					c0.226-0.437,0.396-0.915,0.493-1.396c0.216-1.049,0.174-2.104-0.151-3.131c-0.101-0.314-0.269-0.623-0.462-0.893
					c-0.186-0.256-0.408-0.258-0.594-0.005c-0.195,0.268-0.365,0.573-0.468,0.89c-0.308,0.944-0.364,1.926-0.193,2.896
					c0.096,0.541,0.025,0.992-0.348,1.375s-0.741,0.783-1.17,1.097c-0.763,0.556-1.611,0.661-2.486,0.249
					c-0.472-0.223-0.953-0.271-1.455-0.143c-0.077,0.021-0.183,0.015-0.228,0.063c-0.419,0.459-0.947,0.272-1.489,0.28
					c-0.019-0.172-0.062-0.325-0.047-0.473c0.149-1.47,0.732-2.709,1.896-3.664c0.521-0.429,0.997-0.914,1.471-1.396
					c0.311-0.315,0.313-0.72,0.187-1.121c-0.102-0.321-0.336-0.452-0.7-0.419c-0.349,0.032-0.448,0.139-0.502,0.537
					c-0.049,0.347-0.204,0.492-0.52,0.494c-0.33,0.001-0.414-0.256-0.41-0.483c0.003-0.246,0.065-0.522,0.193-0.728
					c0.353-0.566,0.921-0.752,1.554-0.682c0.606,0.065,1.021,0.42,1.226,1c0.235,0.664,0.216,1.323-0.247,1.866
					c-0.464,0.543-1.008,1.015-1.513,1.521c-0.336,0.339-0.687,0.666-0.991,1.029c-0.326,0.389-0.493,0.859-0.546,1.362
					c0.043,0.026,0.081,0.07,0.105,0.063c0.851-0.25,1.676-0.25,2.506,0.123c0.413,0.186,0.87,0.145,1.264-0.111
					c0.3-0.194,0.584-0.413,0.855-0.645c0.407-0.348,0.541-0.764,0.447-1.326c-0.176-1.055-0.076-2.115,0.297-3.121
					c0.168-0.455,0.427-0.908,0.752-1.268c0.484-0.535,1.199-0.535,1.696-0.011c0.307,0.323,0.572,0.731,0.721,1.149
					c0.563,1.593,0.562,3.213-0.013,4.803c-0.15,0.417-0.431,0.813-0.731,1.142c-0.367,0.398-0.894,0.444-1.319,0.228
					C165.524,135.333,165.507,134.794,166.079,134.393z"/>
				<path fill="#FFFFFF" d="M170.026,134.656c0.402-0.068,0.732-0.137,1.065-0.178c0.444-0.055,0.871,0.028,1.282,0.207
					c0.694,0.301,1.359,0.224,1.996-0.174c1.078-0.671,1.895-1.578,2.418-2.734c0.114-0.25,0.193-0.527,0.23-0.801
					c0.067-0.492-0.132-0.699-0.61-0.591c-0.342,0.078-0.665,0.251-0.984,0.407c-0.26,0.125-0.476,0.405-0.81,0.209
					c-0.31-0.182-0.208-0.488-0.21-0.757c-0.006-0.697-0.013-1.396,0.009-2.093c0.018-0.538,0.298-0.784,0.767-0.59
					c1.008,0.42,1.849,0.123,2.666-0.513c-0.267,1.048-1,1.523-2.463,1.599c-0.017,0.082-0.049,0.174-0.051,0.266
					c-0.009,0.661,0.079,0.725,0.727,0.591c0.23-0.048,0.475-0.073,0.709-0.062c0.56,0.027,0.967,0.375,1.12,0.916
					c0.129,0.461,0.064,0.914-0.097,1.351c-0.625,1.703-1.758,2.966-3.362,3.801c-0.715,0.371-1.458,0.375-2.195,0.058
					c-0.742-0.318-1.436-0.346-2.159,0.108c-0.249,0.157-0.645,0.078-1.05,0.114c-0.029-1.018,0.09-1.924,0.578-2.756
					c0.335-0.573,0.783-1.049,1.288-1.48c0.482-0.412,0.938-0.859,1.384-1.313c0.289-0.292,0.341-0.663,0.237-1.059
					c-0.097-0.358-0.278-0.514-0.627-0.521c-0.402-0.009-0.567,0.101-0.662,0.498c-0.073,0.303-0.325,0.346-0.535,0.339
					c-0.111-0.004-0.271-0.219-0.309-0.363c-0.078-0.311,0.06-0.593,0.272-0.816c0.435-0.454,0.979-0.612,1.583-0.489
					c0.575,0.117,0.936,0.491,1.115,1.052c0.208,0.654,0.166,1.288-0.282,1.809c-0.465,0.539-1.011,1.01-1.514,1.518
					c-0.351,0.352-0.71,0.697-1.024,1.08C170.227,133.662,170.075,134.117,170.026,134.656z"/>
				<path fill="#FFFFFF" d="M132.504,129.391c0.334-0.129,0.567-0.221,0.799-0.311c0.527,0.58,0.388,0.834-0.764,1.322
					c-0.009,0.166-0.027,0.357-0.027,0.551c-0.002,1.255-0.002,2.51-0.002,3.765c0,0.159,0.008,0.32-0.014,0.478
					c-0.054,0.39-0.229,0.57-0.632,0.576c-0.976,0.018-1.953,0.019-2.928,0c-0.414-0.008-0.62-0.217-0.629-0.646
					c-0.021-0.916-0.031-1.833,0.005-2.748c0.023-0.615,0.39-1.102,0.857-1.449c0.475-0.352,1.017-0.615,1.541-0.893
					c0.26-0.139,0.547-0.223,0.836-0.335c0-0.283,0-0.537,0-0.858c-0.601-0.07-1.213-0.089-1.813,0.012
					c-0.194,0.033-0.351,0.289-0.544,0.459c-0.561-0.06-0.75-0.371-0.455-0.852c0.195-0.316,0.48-0.545,0.872-0.554
					c0.796-0.019,1.593-0.028,2.39-0.017c0.329,0.004,0.473,0.176,0.504,0.547C132.522,128.713,132.504,128.992,132.504,129.391z
					 M131.562,130.661c-0.417,0.161-0.747,0.289-1.077,0.415c-0.677,0.257-1.036,0.777-1.191,1.457
					c-0.172,0.742-0.076,1.49-0.07,2.29c0.465,0,0.878,0.016,1.289-0.005c0.627-0.029,1.021-0.379,1.041-0.998
					C131.586,132.809,131.562,131.796,131.562,130.661z"/>
				<path fill="#FFFFFF" d="M51.402,131.859c0.008,2.145-1.709,3.897-3.838,3.918c-2.112,0.02-3.896-1.738-3.913-3.855
					c-0.017-2.145,1.757-3.92,3.911-3.916C49.657,128.011,51.395,129.754,51.402,131.859z M47.498,128.947
					c-1.62,0.01-2.916,1.313-2.919,2.935c-0.002,1.648,1.306,2.954,2.959,2.953c1.661-0.002,2.949-1.3,2.939-2.963
					C50.465,130.211,49.167,128.936,47.498,128.947z"/>
				<path fill="#FFFFFF" d="M123.078,132.438c-0.392,0.582-0.363,1.16-0.145,1.744c0.154,0.411,0.453,0.645,0.908,0.643
					c0.418-0.002,0.839,0.019,1.256-0.004c0.617-0.034,0.988-0.444,0.957-1.065c-0.028-0.534-0.205-0.987-0.684-1.321
					c-0.57-0.396-1.125-0.83-1.633-1.304c-0.64-0.596-0.904-1.351-0.667-2.225c0.187-0.683,0.646-1.026,1.347-1.036
					c0.398-0.006,0.797-0.016,1.195,0.004c0.801,0.041,1.35,0.861,1.102,1.625c-0.102,0.311-0.309,0.459-0.567,0.406
					c-0.263-0.055-0.41-0.247-0.417-0.547c-0.012-0.484-0.029-0.506-0.503-0.521c-0.259-0.007-0.519-0.008-0.776,0.001
					c-0.375,0.014-0.496,0.125-0.529,0.493c-0.041,0.469,0.125,0.866,0.479,1.169c0.363,0.311,0.728,0.623,1.12,0.895
					c0.879,0.608,1.363,1.434,1.432,2.496c0.028,0.436,0.036,0.875,0.006,1.312c-0.024,0.366-0.166,0.514-0.533,0.521
					c-0.975,0.019-1.953,0.047-2.924-0.023c-0.805-0.059-1.388-0.713-1.571-1.654c-0.075-0.385-0.082-0.798-0.036-1.188
					C121.973,132.182,122.452,132.01,123.078,132.438z"/>
				<path fill="#FFFFFF" d="M53.588,135.41c-0.329,0.056-0.578,0.099-0.883,0.15c-0.012-0.289-0.031-0.522-0.032-0.759
					c-0.003-1.813-0.011-3.629,0.004-5.442c0.004-0.461-0.066-0.871-0.483-1.215c0.233-0.213,0.446-0.406,0.686-0.625
					c0.452,0.217,0.526,0.69,0.722,1.141c0.129-0.076,0.25-0.161,0.382-0.223c0.396-0.18,0.781-0.422,1.198-0.512
					c1.176-0.253,2.229,0.463,2.498,1.661c0.384,1.711,0.75,3.425,1.126,5.138c0.067,0.308,0.146,0.614,0.239,1.006
					c-0.319,0.017-0.601,0.03-0.916,0.047c-0.06-0.227-0.117-0.412-0.159-0.603c-0.386-1.75-0.806-3.495-1.142-5.255
					c-0.189-0.993-1.076-1.377-1.951-0.939c-0.808,0.403-1.351,0.989-1.304,2.012c0.058,1.232,0.014,2.472,0.014,3.708
					C53.588,134.917,53.588,135.133,53.588,135.41z"/>
				<path fill="#FFFFFF" d="M152.426,128.407c0.5-0.154,0.945-0.343,1.408-0.421c1.182-0.196,2.031,0.699,1.982,1.728
					c-0.074,1.531-0.034,3.068-0.011,4.601c0.007,0.443,0.124,0.886,0.204,1.422c-0.129,0.199-0.414,0.263-0.719,0.146
					c-0.317-0.123-0.404-0.415-0.404-0.733c0-1.057,0.003-2.112,0.003-3.168c0-0.756,0.006-1.514-0.003-2.271
					c-0.006-0.62-0.342-0.908-0.956-0.819c-0.528,0.074-0.974,0.329-1.38,0.666c-0.219,0.183-0.209,0.411-0.209,0.651
					c0,1.454,0,2.908,0,4.362c0,0.14,0.002,0.279-0.002,0.419c-0.021,0.661-0.152,0.78-0.904,0.75
					c-0.006-0.226-0.02-0.458-0.02-0.689c0.002-1.534,0.012-3.067,0.004-4.602c-0.002-0.792-0.035-1.584-0.055-2.404
					C151.946,127.652,152.188,127.732,152.426,128.407z"/>
				<path fill="#FFFFFF" d="M37.01,128.645c0.167-0.236,0.347-0.49,0.542-0.767c0.536,0.169,0.86,0.584,1.271,0.955
					c0.139-0.131,0.273-0.267,0.417-0.392c0.808-0.707,2.028-0.73,2.728-0.049c0.368,0.358,0.52,0.834,0.71,1.354
					c-0.367,0.101-0.702,0.192-1.069,0.294c-0.019-0.13-0.033-0.225-0.045-0.32c-0.089-0.666-0.355-0.9-0.959-0.888
					c-0.534,0.013-1.096,0.467-1.067,1.052c0.052,1.033,0.015,2.072,0.015,3.108c0,0.239-0.011,0.479-0.002,0.718
					c0.031,0.838,0.673,1.293,1.48,1.049c0.527-0.16,0.894-0.508,1.133-0.994c0.095-0.193,0.171-0.396,0.281-0.654
					c0.254,0.113,0.48,0.215,0.689,0.309c-0.025,1.012-0.889,1.99-1.95,2.253c-1.366,0.341-2.544-0.565-2.558-1.976
					c-0.009-0.896-0.027-1.795,0.007-2.69c0.04-1.048-0.408-1.753-1.364-2.155c-0.072-0.029-0.139-0.072-0.206-0.113
					C37.047,128.729,37.043,128.705,37.01,128.645z"/>
				<path fill="#FFFFFF" d="M73.003,128.672c0.177-0.304,0.324-0.557,0.489-0.841c0.764,0.233,1.258,0.726,1.694,1.405
					c0.558-0.645,1.188-1.137,2.074-1.313c0.117,0.251,0.231,0.495,0.367,0.786c-0.23,0.091-0.431,0.159-0.625,0.247
					c-0.785,0.36-1.269,0.888-1.242,1.838c0.039,1.374-0.01,2.75-0.022,4.125c-0.002,0.157-0.014,0.313-0.023,0.515
					c-0.275,0.063-0.541,0.125-0.854,0.2c-0.013-0.215-0.032-0.388-0.033-0.56c-0.003-1.316-0.039-2.633,0.007-3.947
					c0.036-1.029-0.432-1.701-1.288-2.171C73.394,128.87,73.234,128.792,73.003,128.672z"/>
				<path fill="#FFFFFF" d="M135.242,127.841c0.012,0.228,0.037,0.462,0.037,0.698c0.003,2.131,0.002,4.263,0.002,6.395
					c0,0.039,0,0.08-0.001,0.119c-0.021,0.633-0.19,0.762-0.899,0.648c-0.012-0.107-0.035-0.223-0.035-0.338
					c0.004-2.211,0.009-4.422,0.014-6.633c0-0.101-0.004-0.2,0.004-0.299C134.408,127.895,134.604,127.756,135.242,127.841z"/>
			</g>
			<rect x="84.227" y="131.736" fill="#34557A" width="35.359" height="0.801"/>
		</g>
	</g>
</g>
</svg>
