<?xml version="1.0" encoding="utf-8"?>
<!-- Generator: Adobe Illustrator 16.0.2, SVG Export Plug-In . SVG Version: 6.00 Build 0)  -->
<!DOCTYPE svg PUBLIC "-//W3C//DTD SVG 1.1//EN" "http://www.w3.org/Graphics/SVG/1.1/DTD/svg11.dtd">
<svg version="1.1" id="Layer_1" xmlns="http://www.w3.org/2000/svg" xmlns:xlink="http://www.w3.org/1999/xlink" x="0px" y="0px"
	 width="600px" height="600px" viewBox="0 0 600 600" enable-background="new 0 0 600 600" xml:space="preserve">
<g id="LOGO_HEADLINER">
	<g>
    
		<g>
			<g>
                <path fill="#FFFFFF" d="M241.535,381.322c0,8.877,0,17.704,0,26.707c-1.005-0.255-1.793-0.451-2.769-0.703
					c0-8.593,0-17.127,0-25.758c-3.281-0.17-6.375,0.176-9.668-0.246c0.308-0.964,0.557-1.734,0.853-2.654c2.883,0,5.73,0,8.76,0
					c0-2.607,0-5.042,0-7.617c0.911-0.258,1.688-0.48,2.701-0.762c0.252,2.739-0.035,5.347,0.199,8.18
					c12.416-1.626,24.07-4.573,33.703-13.345c-7.459-7.087-13.166-15.229-17.95-24.079c-1.913,0.785-3.659,1.541-5.44,2.227
					c-10.529,4.061-21.437,5.813-32.701,5.13c-9.234-0.56-18.064-2.783-26.355-6.926c-1.122-0.56-1.951-0.442-3,0.053
					c-10.093,4.761-20.547,8.484-31.497,10.714c-5.691,1.16-11.433,1.875-17.25,2.063c-8.559,0.281-16.92-0.683-25.137-3.155
					c-1.582-0.472-3.432-0.079-5.158-0.047c-18.549,0.354-34.02-5.754-44.76-21.536c-4.239-6.229-6.601-13.236-7.737-20.669
					c-0.816-5.341-0.951-10.708-0.419-16.087c0.032-0.357,0.003-0.712,0.003-1.23c-0.91-0.123-1.78-0.226-2.647-0.346
					c-5.591-0.773-10.992-2.279-16.236-4.359c-5.342-2.121-10.563-4.497-15.557-7.345c-0.987-0.563-1.942-1.181-2.856-1.849
					c-0.217-0.158-0.363-0.677-0.267-0.917c0.098-0.249,0.536-0.51,0.819-0.504c0.458,0.006,0.93,0.19,1.374,0.354
					c10.598,3.776,21.516,5.991,32.745,6.686c1.065,0.067,2.127,0.146,3.252,0.223c1.065-5.426,2.108-10.727,3.18-16.178
					c-0.795-0.319-1.705-0.604-2.539-1.033c-3.828-1.961-7.758-3.762-11.421-6.006c-5.096-3.117-9.99-6.567-14.955-9.901
					c-0.552-0.371-1.491-0.75-0.945-1.626c0.53-0.848,1.286-0.221,1.887,0.097c7.477,3.979,15.378,6.885,23.484,9.252
					c2.271,0.667,4.658,0.939,6.951,1.38c1.863-4.179,3.63-8.145,5.479-12.284c-1.291-1.311-2.667-2.713-4.047-4.11
					c-0.924-0.939-1.884-1.843-2.754-2.823c-0.36-0.415-0.804-1.044-0.724-1.482c0.129-0.702,0.933-0.549,1.522-0.561
					c3.467-0.078,6.935-0.207,10.4-0.217c1.185-0.003,1.938-0.384,2.679-1.334c10.907-13.964,25.211-22.254,42.587-25.392
					c10.414-1.881,20.842-1.77,31.239-0.037c5.061,0.844,10.059,2.08,15.063,3.22c1.165,0.264,2.235,0.146,3.354-0.078
					c11.312-2.266,22.731-3.223,34.254-2.565c8.815,0.501,17.458,1.998,25.696,5.333c3.331,1.349,6.557,2.931,9.451,5.09
					c5.769,4.308,9.076,10.219,10.904,17.046c1.641,6.146,1.875,12.415,1.248,18.699c-1.641,16.438-7.901,31.192-16.84,44.903
					c-7.925,12.146-17.66,22.6-29.654,30.858c-1.471,1.022-2.982,1.98-4.471,2.974c-0.035,0.023-0.047,0.103-0.164,0.381
					c1.348,0.322,2.654,0.686,3.979,0.961c7.852,1.629,15.691,1.304,23.52-0.199c11.956-2.303,22.898-7.119,33.27-13.371
					c2.414-1.453,2.572-2.438,4.104,1.313c3.571,8.748,8.071,16.948,14.215,24.182c3.583,4.222,7.632,7.928,12.352,10.863
					c9.275,5.777,19.274,7.57,29.936,5.156c11.312-2.558,20.552-8.801,28.828-16.729c-0.34,0.129-0.683,0.24-1.017,0.381
					c-1.043,0.454-2.057,0.97-3.114,1.377c-3.554,1.365-7.022,1.063-10.397-0.639c-3.492-1.764-6.018-4.488-7.837-7.896
					c-2.147-4.017-3.179-8.364-3.627-12.858c-1.017-10.266,0.539-20.282,3.085-30.17c1.187-4.623,2.669-9.176,4.058-13.893
					c0.615,0.064,1.096,0.021,1.506,0.167c5.323,1.954,10.717,2.235,16.198,0.709c0.407-0.117,1.022-0.12,1.313,0.111
					c0.545,0.428,0.135,0.976-0.152,1.43c-0.932,1.465-1.91,2.897-2.807,4.383c-6.211,10.321-10.898,21.267-13.324,33.108
					c-0.744,3.642-1.189,7.327-1.031,11.051c0.047,0.99,0.229,2.039,0.609,2.95c1.031,2.499,2.912,3.29,5.361,2.159
					c1.389-0.639,2.766-1.494,3.873-2.54c1.898-1.808,3.724-3.729,5.335-5.792c5.306-6.779,9.401-14.291,12.855-22.131
					c2.429-5.52,4.488-11.206,6.665-16.831c0.756-1.954,0.633-1.937,2.616-1.813c4.213,0.264,8.355-0.29,12.396-1.529
					c1.752-0.539,2.291-0.117,1.91,1.752c-0.604,2.982-1.23,5.968-1.975,8.927c-3.744,14.868-9.17,29.063-17.215,42.173
					c-5.675,9.249-12.434,17.566-20.982,24.346c-6.598,5.221-13.863,9.155-22.102,11.098c-11.496,2.719-22.436,1.055-32.854-4.371
					c-3.621-1.887-6.979-4.172-10.131-6.762c-0.457-0.375-0.929-0.738-1.348-1.069c-0.196,0.044-0.349,0.021-0.416,0.088
					c-5.467,5.285-12.129,8.423-19.254,10.731c-4.857,1.57-9.838,2.508-14.889,3.149
					C242.511,381.141,242.115,381.226,241.535,381.322z M180.316,324.771c0.434-0.252,0.548-0.296,0.639-0.375
					c0.275-0.231,0.545-0.466,0.812-0.712c8.88-8.01,15.756-17.484,20.429-28.494c5.355-12.621,7.377-25.69,4.74-39.274
					c-1.857-9.558-5.988-18-12.832-25.012c-7.488-7.67-16.746-11.946-27.142-13.979c-0.45-0.088-0.945-0.045-1.4,0.038
					c-6.152,1.138-12.026,3.079-17.522,6.1c-7.368,4.042-13.771,9.318-19.399,15.504c-16.025,17.625-26.109,38.158-29.829,61.739
					c-1.248,7.913-1.362,15.832,0.089,23.736c1.116,6.07,3.129,11.777,6.844,16.787c2.424,3.272,5.396,5.915,9.078,7.699
					c0.573,0.281,1.245,0.583,1.846,0.539c3.693-0.284,7.412-0.448,11.061-1.046c16.835-2.728,32.265-9.073,46.449-18.498
					c0.327-0.22,0.615-0.501,1.014-0.835c-0.561-0.621-1.036-1.148-1.5-1.679c-8.229-9.337-13.074-20.194-14.61-32.534
					c-0.189-1.512-0.054-1.676,1.468-2.063c2.288-0.58,4.374-1.6,6.255-3.021c0.708-0.536,1.296-1.236,1.98-1.813
					c0.245-0.202,0.734-0.437,0.911-0.328c0.292,0.182,0.48,0.604,0.601,0.961c0.086,0.267-0.003,0.592-0.019,0.891
					c-0.201,4.011-0.089,8.01,0.438,11.997c0.841,6.337,2.616,12.393,5.839,17.95C177.68,321.012,179.03,322.834,180.316,324.771z
					 M60.435,283.529c14.742,0.299,28.896-1.761,42.756-6.955c-6.864-1.216-13.521-2.2-20.084-3.62
					c-6.564-1.422-13.036-3.275-19.68-4.97C62.084,273.103,61.011,278.145,60.435,283.529z M66.207,259.314
					c1.9,0.423,39.234-2.436,43.264-3.447c-12.75-2.502-25.497-5.004-38.329-7.521C69.155,251.906,67.566,255.541,66.207,259.314z
					 M125.052,237.072c0.021-0.114,0.038-0.231,0.06-0.344c-0.258-0.088-0.513-0.192-0.781-0.255
					c-2.319-0.552-4.641-1.104-6.965-1.648c-9.529-2.225-19.062-4.434-28.578-6.693c-0.979-0.234-1.723-0.183-2.424,0.567
					c-2.533,2.697-5.092,5.367-7.62,8.064c-0.249,0.264-0.36,0.658-0.63,1.176C93.918,237.645,109.482,237.36,125.052,237.072z
					 M95.49,297.226c-11.568-4.374-23.703-4.72-36.009-5.584c0,2.927,0,5.584,0,8.391C71.703,302.121,83.7,301.189,95.49,297.226z"
					/>
                <path fill="#FFFFFF" d="M442.547,327.416c-0.437,0.463-0.873,0.932-1.307,1.395c-6.381,6.896-13.975,11.76-23.25,13.74
					c-6.047,1.283-12.035,1.037-17.769-1.418c-8.798-3.765-13.784-10.658-15.53-19.904c-1.752-9.275,0.407-17.918,4.746-26.121
					c0.639-1.216,1.377-2.376,2.145-3.691c-0.264-0.393-0.554-0.82-0.844-1.254c-1.418-2.074-2.818-4.154-4.248-6.223
					c-0.545-0.791-0.662-1.556,0.123-2.232c1.664-1.447,3.299-2.947,5.063-4.277c1.324-1.002,1.828-0.706,2.479,0.847
					c0.855,2.03,1.787,4.022,2.813,6.331c0.674-0.606,1.102-0.973,1.509-1.362c5.435-5.147,11.657-8.944,18.894-10.953
					c2.83-0.79,5.689-1.119,8.678-0.744c5.021,0.627,10.723,5.536,11.039,12.403c0.381,8.232-3.486,14.25-10.23,18.486
					c-5.643,3.548-11.795,3.627-17.968,1.611c-2.643-0.861-5.115-2.232-7.764-3.422c-0.029,0.035-0.208,0.193-0.313,0.393
					c-2.889,5.15-4.685,10.629-4.6,16.564c0.035,2.25,0.574,4.488,0.894,6.732c0.252,1.77,1.31,3.018,2.651,4.102
					c4.078,3.293,8.76,3.938,13.729,3.006c5.262-0.99,9.691-3.665,13.626-7.201c3.735-3.366,6.7-7.327,8.792-11.895
					c0.633-1.377,1.365-1.963,2.971-1.893c2.139,0.091,4.289-0.278,6.439-0.352c1.107-0.041,1.658-0.469,2.048-1.556
					c2.64-7.362,7.254-13.28,13.488-17.944c4.181-3.123,8.798-5.309,13.978-6.179c3.1-0.521,6.196-0.521,9.234,0.366
					c6.688,1.951,10.573,6.486,11.895,13.242c1.078,5.543-0.064,10.816-2.262,15.914c-0.542,1.26-1.187,2.479-1.869,3.674
					c-0.65,1.125-1.02,1.257-2.197,0.838c-3.152-1.113-6.305-2.244-9.439-3.413c-1.523-0.565-1.559-1.157-0.275-2.212
					c4.359-3.615,6.129-8.25,5.303-13.846c-0.094-0.639-0.349-1.277-0.639-1.854c-1.271-2.517-3.803-3.384-6.17-1.872
					c-1.951,1.248-3.826,2.695-5.467,4.324c-6.188,6.123-10.063,13.605-12.48,21.885c-1.585,5.438-2.309,10.992-1.819,16.667
					c0.229,2.631,0.738,5.206,1.729,7.667c1.192,2.95,3.645,4.228,6.762,3.565c2.086-0.445,3.935-1.397,5.681-2.578
					c4.014-2.71,7.254-6.22,10.187-10.028c0.946-1.23,1.813-2.525,2.71-3.797c0.776-1.084,0.85-1.131,2.048-0.677
					c3.442,1.315,6.961,1.623,10.567,0.876c0.117-0.026,0.252-0.088,0.352-0.064c0.478,0.144,1.093,0.188,1.383,0.513
					c0.196,0.226,0.076,0.917-0.111,1.292c-1.582,3.103-3.521,5.977-5.798,8.613c-5.101,5.93-11.194,10.418-18.779,12.645
					c-5.355,1.579-10.734,1.729-16.046-0.146c-7.061-2.496-11.654-7.509-14.338-14.382c-1.424-3.659-2.068-7.474-2.089-11.399
					c0-0.896,0-1.787,0-2.678C442.77,327.507,442.658,327.457,442.547,327.416z M406.459,293.514
					c4.819,2.414,9.565,3.416,14.238,0.299c4.192-2.795,5.514-7.084,5.59-11.953C419.713,282.721,410.367,288.211,406.459,293.514z"
					/>
                <path fill="#FFFFFF" d="M528.656,282.231c-0.867,1.345-1.787,2.663-2.607,4.04c-4.242,7.113-7.453,14.707-10.383,22.43
					c-1.377,3.633-2.836,7.236-4.315,10.822c-0.384,0.932-0.961,1.793-1.526,2.631c-0.51,0.762-1.26,1.104-2.186,0.785
					c-2.742-0.946-5.561-1.336-8.455-1.242c-0.902,0.038-1.277-0.419-1.163-1.389c0.117-0.946,0.343-1.881,0.542-2.813
					c1.775-8.314,2.936-16.714,3.595-25.189c0.507-6.504,0.782-13.02,0.548-19.538c-0.375-10.538-1.412-20.994-4.608-31.122
					c-1.102-3.485-2.417-6.896-4.427-9.968c-1.043-1.591-2.244-3.111-3.571-4.471c-2.042-2.084-4.544-3.278-7.562-3.081
					c-0.302,0.018-0.656,0.097-0.888-0.032c-0.325-0.177-0.747-0.492-0.794-0.798c-0.047-0.309,0.246-0.769,0.524-0.993
					c0.313-0.243,0.771-0.306,1.175-0.426c4.292-1.288,8.575-2.591,12.879-3.85c2.35-0.683,4.5-0.144,6.442,1.264
					c1.579,1.143,2.748,2.651,3.721,4.32c2.165,3.71,3.396,7.764,4.339,11.918c1.506,6.669,2.35,13.438,2.531,20.263
					c0.185,6.873,0.188,13.746,0.182,20.624c-0.003,2.927-0.249,5.845-0.404,9.158c0.416-0.639,0.674-0.973,0.864-1.345
					c1.245-2.417,2.78-4.611,4.778-6.46c4.77-4.4,10.301-5.622,16.468-3.776c2.985,0.891,5.03,2.771,5.868,5.95
					c1.207,4.6,1.658,9.293,2.048,13.998c0.495,6.026,0.97,12.062,2.915,17.827c0.756,2.25,1.931,4.359,2.936,6.519
					c0.439,0.938,1.189,1.512,2.235,1.57c1.239,0.064,2.522,0.27,3.712,0.032c4.125-0.823,7.764-2.716,10.951-5.464
					s5.936-5.9,8.396-9.311c0.246-0.346,0.718-0.814,1.008-0.765c0.343,0.056,0.718,0.571,0.867,0.97
					c1.412,3.75,2.783,7.506,4.143,11.279c0.437,1.225,0.357,1.441-0.703,2.288c-6.527,5.212-13.77,8.238-22.318,7.79
					c-5.314-0.275-10.248-1.518-14.736-4.436c-3.823-2.49-6.041-6.231-7.963-10.189c-1.887-3.879-2.52-8.083-2.93-12.316
					c-0.513-5.232-0.938-10.477-1.406-15.715c-0.053-0.574-0.182-1.146-0.275-1.717
					C528.949,282.278,528.803,282.255,528.656,282.231z"/>
                <path fill="#FFFFFF" d="M273.12,307.828c1.187,0.425,2.118,0.105,2.897-0.448c1.412-0.999,2.827-2.016,4.075-3.202
					c3.305-3.152,6.021-6.809,8.575-10.57c6.762-9.99,12.264-20.647,16.658-31.878c0.149-0.381,0.328-0.75,0.439-1.011
					c3.791,0.158,7.465,0.305,11.133,0.482c0.182,0.006,0.352,0.283,0.604,0.498c-0.272,0.498-0.516,0.954-0.762,1.414
					c-5.889,10.896-11.355,21.984-15.568,33.65c-1.526,4.222-2.83,8.505-3.577,12.94c-0.179,1.052-0.246,2.115-0.36,3.158
					c1.521,1.017,2.959,0.759,4.397,0.255c1.778-0.624,3.261-1.737,4.626-3.012c2.561-2.399,4.494-5.265,6.094-8.367
					c0.164-0.319,0.287-0.665,0.475-0.967c0.469-0.747,0.979-0.747,1.506-0.023c0.035,0.044,0.059,0.108,0.082,0.158
					c1.143,2.036,2.268,4.078,3.431,6.1c0.401,0.7,0.413,1.315-0.044,1.995c-4.641,6.896-10.641,11.93-18.923,13.816
					c-1.878,0.428-3.812,0.475-5.698,0.117c-3.979-0.756-6.671-3.05-7.881-6.967c-0.105-0.343-0.199-0.688-0.311-1.025
					c-0.018-0.053-0.082-0.079-0.258-0.246c-0.41,0.313-0.87,0.645-1.301,1.008c-2.303,1.928-4.723,3.677-7.506,4.852
					c-2.115,0.896-4.289,1.462-6.621,1.137c-2.807-0.393-4.852-1.919-6.352-4.236c-1.696-2.619-2.443-5.563-2.854-8.607
					c-0.876-6.472-0.246-12.891,0.873-19.271c1.963-11.186,5.525-21.88,10.04-32.269c0.624-1.443,0.645-1.446,2.109-0.979
					c4.556,1.471,9.185,2.152,13.96,1.383c0.48-0.075,1.154-0.06,1.482,0.217c0.565,0.483,0.1,1.1-0.193,1.611
					c-2.918,5.09-5.438,10.374-7.623,15.819c-3.275,8.177-5.912,16.541-7.184,25.286
					C273.211,302.994,272.813,305.355,273.12,307.828z"/>
                <path fill="#FFFFFF" d="M422.139,230.925c-5.669-0.117-10.365-1.485-14.479-4.551c-2.156-1.605-4.242-3.303-6.352-4.969
					c-0.328-0.258-0.645-0.545-0.914-0.863c-0.879-1.033-0.709-1.743,0.492-2.379c1.582-0.844,3.176-1.666,4.705-2.587
					c0.867-0.519,1.638-1.194,2.426-1.83c1.061-0.855,1.277-0.798,2.109,0.327c0.885,1.197,1.775,2.401,2.801,3.48
					c0.727,0.771,1.635,1.397,2.531,1.983c1.611,1.056,3.311,1.352,5.282,0.882c7.002-1.677,13.154-4.978,18.718-9.441
					c5.701-4.569,10.377-10.053,14.312-16.182c0.39-0.604,0.75-1.225,1.146-1.824c0.864-1.314,1.289-1.339,2.194-0.042
					c2.979,4.251,6.706,7.77,10.726,11.004c0.322,0.261,0.665,0.51,0.984,0.771c1.175,0.936,1.248,1.371,0.111,2.404
					c-2.561,2.331-5.104,4.701-7.805,6.87c-9.34,7.509-19.758,12.939-31.418,15.876c-1.441,0.366-2.927,0.621-4.4,0.825
					C424.072,230.851,422.813,230.874,422.139,230.925z"/>
                <path fill="#FFFFFF" d="M458.572,250.833c-0.264,1.377-1.031,2.512-2.021,3.469c-4.046,3.914-9.173,5.643-14.774,3.035
					c-2.42-1.131-4.673-2.637-6.94-4.071c-1.764-1.116-3.48-2.325-5.139-3.596c-3.029-2.338-6.346-2.496-9.861-1.506
					c-3.328,0.939-6.293,2.588-9.018,4.683c-4.576,3.516-8.215,7.811-10.781,13.005c-0.861,1.746-0.984,1.79-2.701,0.932
					c-5.08-2.534-10.154-5.082-15.231-7.629c-0.214-0.107-0.437-0.207-0.636-0.33c-1.107-0.678-1.201-1.137-0.258-2.076
					c1.734-1.731,3.469-3.472,5.309-5.092c4.629-4.08,9.838-7.151,15.814-8.892c6.65-1.938,13.137-1.346,19.494,1.122
					c2.446,0.945,4.74,2.29,7.178,3.261c5.367,2.152,10.523,1.843,15.258-1.715c1.359-1.027,2.268-2.427,2.962-3.99
					c0.448-1.02,1.087-1.068,1.702-0.186c2.514,3.63,5.514,6.756,9.275,9.117C458.338,250.458,458.426,250.644,458.572,250.833z"/>
                <path fill="#FFFFFF" d="M427.143,388.611c-0.504-1.986-0.861-2.256-2.713-2.142c-2.678,0.164-3.861,1.409-3.867,4.087
					c-0.006,3.293-0.012,6.577,0,9.873c0.018,2.933,1.04,3.946,4.008,4.008c1.072,0.018,2.153,0.018,3.229,0.006
					c1.802-0.023,2.426-0.609,2.783-2.748c-2.016,0-4.002,0-5.982,0c-0.018-1.585,0.161-1.898,1.313-2.01
					c1.008-0.091,2.027-0.047,3.047-0.056c0.703-0.006,1.412,0,2.188,0c0.076-0.51,0.173-0.853,0.173-1.187
					c0-1.579-0.27-1.904-1.822-2.027c-1.008-0.082-2.033-0.064-3.047-0.1c-0.58-0.023-1.154-0.064-1.729-0.1
					c0.029-1.506,0.246-1.922,1.365-1.966c2.092-0.085,4.189-0.085,6.281,0c1.113,0.044,1.564,0.56,1.664,1.74
					c0.088,1.119,0.018,2.247,0.018,3.507c2.563,0,5.068,0,7.787,0c-5.168-2.684-7.055-5.862-5.985-9.832
					c0.981-3.662,4.371-6.179,7.978-5.936c3.688,0.249,6.709,2.977,7.292,6.563c0.645,4.037-1.465,7.219-6.272,9.105
					c0.615,0.111,0.973,0.22,1.33,0.229c1.494,0.035,2.988,0.003,4.482,0.053c0.996,0.038,1.69,0.469,1.705,1.869
					c-0.68,0-1.307,0-1.939,0c-5.021,0.029-10.049,0.094-15.067,0.07c-1.187-0.003-1.828,0.387-2.276,1.518
					c-1.131,2.868-3.24,4.289-6.41,4.131c-2.086-0.105-4.187,0.009-6.275-0.029c-2.051-0.041-2.549-0.539-2.561-2.572
					c-0.018-4.729,0.129-9.451-0.047-14.174c-0.161-4.479,2.599-6.316,6.466-6.785c0.964-0.117,2.021,0.135,2.977,0.428
					c0.65,0.199,1.26,0.686,1.758,1.178c0.896,0.879,1.063,1.796,0.615,2.584C429.053,388.86,428.191,388.863,427.143,388.611z
					 M443.584,386.537c-2.848-0.064-5.086,2.004-5.191,4.813c-0.111,2.895,2.077,5.206,4.954,5.241
					c2.798,0.032,5.06-2.133,5.147-4.91C448.57,388.928,446.35,386.602,443.584,386.537z"/>
                <path fill="#FFFFFF" d="M199.477,388.711c-0.428,0.299-0.753,0.548-1.102,0.762c-0.507,0.311-1.028,0.592-1.6,0.92
					c-0.205-0.302-0.416-0.519-0.524-0.782c-0.987-2.353-2.979-2.95-5.253-2.985c-4.125-0.059-7.884,2.912-8.771,6.876
					c-0.938,4.192,1.078,8.391,4.878,10.181c3.817,1.805,8.417,0.677,10.972-2.666c1.113-1.459,1.427-3.126,1.4-4.898
					c-0.009-0.586,0-1.166,0-1.934c2.068,0,4.078,0,6.211,0c0.064-0.627,0.146-1.078,0.155-1.538
					c0.015-1.017-0.032-2.033-0.009-3.05c0.117-5.065,5.607-6.724,8.73-5.145c2.165,1.096,3.105,3.27,2.262,5.748
					c-0.92-0.193-1.869-0.398-2.707-0.571c-0.108-0.308-0.193-0.425-0.176-0.519c0.258-1.822-0.398-2.602-2.177-2.449
					c-1.887,0.158-3.384,1.356-3.185,3.34c0.135,1.289,0.029,2.602,0.029,4.084c2.314,0,4.441,0,6.932,0
					c-0.437,1.078-0.75,1.869-1.125,2.81c-1.846,0-3.674,0-5.681,0c-0.179,1.919-0.302,3.688,0.009,5.435
					c0.255,1.447,1.465,2.271,3.018,2.291c2.186,0.032,4.535-1.84,5.259-4.207c0.105-0.34,0.179-0.686,0.29-1.119
					c0.398-0.1,0.788-0.211,1.184-0.296c0.401-0.091,0.809-0.158,1.295-0.252c0.056,0.352,0.146,0.636,0.135,0.917
					c-0.185,3.914-4.187,7.726-8.104,7.729c-3.381,0.003-5.912-2.455-5.974-5.836c-0.026-1.482-0.003-2.956-0.003-4.529
					c-1.137,0-2.074,0-3.126,0c-0.144,0.483-0.296,0.981-0.431,1.488c-1.421,5.314-6.313,9-11.692,8.813
					c-5.435-0.188-10.146-4.093-11.127-9.498c-0.838-4.611,0.589-8.569,4.321-11.464c3.662-2.842,7.752-3.264,12.006-1.415
					C197.42,385.658,198.691,386.824,199.477,388.711z"/>
                <path fill="#FFFFFF" d="M498.237,403.178c0.185,0.211,0.29,0.354,0.419,0.475c1.078,1.02,1.664,1.043,2.344-0.278
					c0.68-1.31,1.189-2.745,1.479-4.187c0.647-3.146,0.521-6.313-0.454-9.393c-0.302-0.943-0.806-1.869-1.386-2.681
					c-0.56-0.768-1.222-0.773-1.781-0.015c-0.586,0.803-1.096,1.717-1.403,2.669c-0.926,2.833-1.093,5.78-0.58,8.687
					c0.287,1.623,0.076,2.977-1.043,4.125c-1.119,1.151-2.224,2.35-3.51,3.293c-2.291,1.67-4.834,1.983-7.459,0.747
					c-1.418-0.671-2.859-0.812-4.365-0.431c-0.231,0.064-0.551,0.047-0.686,0.19c-1.254,1.377-2.839,0.817-4.465,0.841
					c-0.059-0.516-0.188-0.976-0.141-1.418c0.445-4.412,2.194-8.127,5.687-10.992c1.562-1.289,2.991-2.742,4.415-4.189
					c0.932-0.943,0.938-2.162,0.56-3.363c-0.308-0.961-1.008-1.356-2.101-1.257c-1.046,0.097-1.342,0.419-1.506,1.611
					c-0.146,1.04-0.612,1.474-1.559,1.482c-0.99,0.003-1.242-0.771-1.23-1.45c0.009-0.738,0.193-1.564,0.58-2.186
					c1.058-1.696,2.76-2.256,4.658-2.045c1.819,0.196,3.064,1.26,3.68,3c0.706,1.992,0.65,3.97-0.741,5.599
					s-3.023,3.044-4.538,4.562c-1.008,1.02-2.063,1.998-2.974,3.088c-0.979,1.166-1.479,2.578-1.638,4.087
					c0.129,0.079,0.243,0.208,0.316,0.19c2.552-0.75,5.027-0.75,7.518,0.369c1.236,0.557,2.607,0.434,3.791-0.334
					c0.899-0.583,1.752-1.239,2.566-1.934c1.219-1.046,1.623-2.294,1.339-3.979c-0.527-3.167-0.226-6.346,0.894-9.363
					c0.504-1.365,1.277-2.725,2.256-3.806c1.45-1.603,3.595-1.603,5.086-0.032c0.92,0.967,1.717,2.191,2.162,3.445
					c1.69,4.781,1.688,9.639-0.038,14.408c-0.448,1.254-1.292,2.44-2.194,3.428c-1.099,1.195-2.681,1.333-3.955,0.686
					C496.57,405.999,496.521,404.382,498.237,403.178z"/>
                <path fill="#FFFFFF" d="M510.076,403.969c1.207-0.205,2.197-0.41,3.196-0.533c1.333-0.167,2.613,0.082,3.847,0.621
					c2.08,0.902,4.078,0.671,5.988-0.521c3.234-2.016,5.684-4.734,7.254-8.203c0.34-0.75,0.58-1.582,0.691-2.402
					c0.199-1.477-0.398-2.098-1.831-1.775c-1.028,0.234-1.995,0.756-2.953,1.222c-0.779,0.375-1.427,1.216-2.429,0.627
					c-0.932-0.548-0.624-1.462-0.633-2.271c-0.018-2.092-0.035-4.189,0.029-6.281c0.053-1.611,0.894-2.35,2.303-1.77
					c3.023,1.26,5.543,0.369,7.998-1.538c-0.803,3.144-3,4.567-7.392,4.796c-0.05,0.246-0.146,0.521-0.152,0.8
					c-0.026,1.983,0.237,2.177,2.183,1.772c0.688-0.144,1.424-0.217,2.127-0.188c1.679,0.082,2.9,1.125,3.357,2.748
					c0.387,1.383,0.193,2.742-0.29,4.055c-1.875,5.109-5.273,8.897-10.087,11.402c-2.145,1.113-4.371,1.125-6.586,0.176
					c-2.224-0.955-4.307-1.037-6.475,0.322c-0.747,0.472-1.934,0.234-3.152,0.343c-0.085-3.056,0.272-5.771,1.734-8.268
					c1.008-1.72,2.35-3.149,3.867-4.438c1.444-1.236,2.813-2.578,4.148-3.94c0.867-0.876,1.025-1.989,0.712-3.179
					c-0.29-1.072-0.835-1.541-1.881-1.562c-1.204-0.026-1.702,0.302-1.983,1.494c-0.223,0.908-0.979,1.037-1.605,1.017
					c-0.334-0.012-0.814-0.656-0.929-1.09c-0.234-0.932,0.179-1.778,0.817-2.449c1.304-1.359,2.936-1.834,4.746-1.465
					c1.729,0.352,2.81,1.474,3.346,3.155c0.627,1.963,0.498,3.864-0.844,5.429c-1.395,1.617-3.035,3.029-4.544,4.553
					c-1.052,1.055-2.13,2.092-3.073,3.24C510.68,400.986,510.226,402.352,510.076,403.969z"/>
                <path fill="#FFFFFF" d="M397.512,388.172c1.002-0.387,1.699-0.662,2.396-0.932c1.582,1.74,1.166,2.502-2.291,3.967
					c-0.029,0.498-0.082,1.069-0.082,1.652c-0.006,3.765-0.006,7.529-0.006,11.294c0,0.478,0.023,0.961-0.041,1.433
					c-0.164,1.172-0.686,1.711-1.898,1.729c-2.924,0.056-5.856,0.059-8.783,0c-1.242-0.023-1.857-0.65-1.887-1.937
					c-0.062-2.748-0.094-5.499,0.018-8.244c0.067-1.843,1.169-3.308,2.569-4.345c1.427-1.058,3.05-1.846,4.623-2.681
					c0.782-0.419,1.641-0.671,2.508-1.005c0-0.85,0-1.611,0-2.575c-1.802-0.208-3.639-0.267-5.44,0.038
					c-0.58,0.1-1.052,0.867-1.629,1.377c-1.685-0.182-2.25-1.113-1.365-2.558c0.586-0.946,1.438-1.635,2.613-1.661
					c2.391-0.059,4.781-0.085,7.172-0.053c0.987,0.012,1.418,0.527,1.512,1.641C397.564,386.139,397.512,386.977,397.512,388.172z
					 M394.688,391.983c-1.254,0.483-2.244,0.867-3.234,1.245c-2.027,0.771-3.105,2.332-3.571,4.371
					c-0.516,2.227-0.229,4.471-0.208,6.87c1.395,0,2.631,0.047,3.867-0.015c1.881-0.088,3.062-1.137,3.123-2.994
					C394.758,398.426,394.688,395.388,394.688,391.983z"/>
                <path fill="#FFFFFF" d="M154.206,395.578c0.025,6.434-5.127,11.689-11.514,11.754c-6.335,0.059-11.688-5.215-11.739-11.566
					c-0.051-6.434,5.272-11.76,11.733-11.748C148.972,384.032,154.185,389.262,154.206,395.578z M142.494,386.842
					c-4.86,0.029-8.748,3.938-8.757,8.804c-0.006,4.942,3.917,8.862,8.877,8.859c4.983-0.006,8.846-3.899,8.817-8.889
					C151.395,390.633,147.501,386.807,142.494,386.842z"/>
                <path fill="#FFFFFF" d="M369.234,397.313c-1.178,1.746-1.09,3.48-0.434,5.232c0.46,1.233,1.359,1.937,2.722,1.931
					c1.254-0.006,2.517,0.056,3.771-0.015c1.849-0.1,2.962-1.33,2.871-3.193c-0.088-1.6-0.615-2.959-2.054-3.961
					c-1.711-1.189-3.375-2.49-4.901-3.914c-1.916-1.787-2.71-4.052-1.998-6.674c0.56-2.051,1.937-3.079,4.04-3.108
					c1.192-0.018,2.391-0.05,3.583,0.012c2.405,0.123,4.052,2.581,3.308,4.875c-0.308,0.935-0.929,1.377-1.702,1.216
					c-0.788-0.164-1.23-0.738-1.248-1.641c-0.038-1.45-0.088-1.518-1.512-1.562c-0.776-0.021-1.556-0.023-2.326,0.003
					c-1.125,0.041-1.488,0.375-1.588,1.479c-0.123,1.406,0.375,2.599,1.436,3.507c1.09,0.932,2.186,1.869,3.363,2.684
					c2.637,1.825,4.087,4.304,4.295,7.488c0.082,1.31,0.105,2.625,0.018,3.938c-0.07,1.096-0.498,1.541-1.6,1.564
					c-2.924,0.056-5.859,0.141-8.771-0.07c-2.414-0.176-4.166-2.139-4.711-4.963c-0.229-1.154-0.246-2.394-0.111-3.563
					C365.918,396.545,367.356,396.029,369.234,397.313z"/>
                <path fill="#FFFFFF" d="M160.764,406.23c-0.987,0.167-1.734,0.296-2.648,0.451c-0.037-0.867-0.094-1.567-0.097-2.279
					c-0.009-5.438-0.032-10.887,0.012-16.324c0.013-1.383-0.198-2.613-1.449-3.645c0.699-0.639,1.339-1.219,2.058-1.875
					c1.356,0.65,1.579,2.068,2.167,3.422c0.387-0.229,0.75-0.483,1.146-0.668c1.188-0.542,2.344-1.266,3.595-1.538
					c3.527-0.759,6.687,1.392,7.494,4.983c1.151,5.133,2.25,10.274,3.378,15.416c0.201,0.923,0.438,1.84,0.716,3.018
					c-0.957,0.05-1.803,0.088-2.748,0.141c-0.18-0.683-0.35-1.236-0.476-1.811c-1.159-5.25-2.418-10.482-3.426-15.765
					c-0.567-2.979-3.229-4.131-5.854-2.815c-2.424,1.207-4.053,2.965-3.911,6.035c0.173,3.697,0.041,7.415,0.041,11.124
					C160.764,404.751,160.764,405.398,160.764,406.23z"/>
                <path fill="#FFFFFF" d="M457.277,385.222c1.5-0.463,2.836-1.028,4.225-1.263c3.545-0.589,6.094,2.098,5.947,5.183
					c-0.223,4.594-0.103,9.205-0.035,13.802c0.023,1.33,0.375,2.66,0.612,4.266c-0.387,0.598-1.242,0.791-2.156,0.439
					c-0.952-0.369-1.213-1.245-1.213-2.197c0-3.173,0.009-6.337,0.009-9.504c0-2.268,0.018-4.544-0.009-6.814
					c-0.018-1.86-1.025-2.725-2.868-2.455c-1.582,0.22-2.921,0.984-4.14,1.998c-0.656,0.548-0.627,1.23-0.627,1.951
					c0,4.362,0,8.725,0,13.084c0,0.422,0.006,0.838-0.006,1.26c-0.062,1.98-0.454,2.338-2.71,2.25
					c-0.018-0.68-0.062-1.374-0.062-2.068c0.006-4.6,0.035-9.199,0.012-13.805c-0.006-2.376-0.105-4.752-0.167-7.213
					C455.836,382.957,456.563,383.197,457.277,385.222z"/>
                <path fill="#FFFFFF" d="M111.029,385.934c0.501-0.706,1.042-1.471,1.626-2.3c1.608,0.507,2.581,1.752,3.814,2.865
					c0.416-0.393,0.819-0.8,1.251-1.175c2.423-2.121,6.083-2.191,8.183-0.146c1.104,1.072,1.56,2.502,2.131,4.061
					c-1.102,0.305-2.106,0.574-3.208,0.882c-0.057-0.39-0.098-0.677-0.135-0.958c-0.267-1.998-1.065-2.701-2.877-2.666
					c-1.603,0.041-3.289,1.4-3.201,3.155c0.155,3.1,0.045,6.217,0.045,9.325c0,0.715-0.034,1.436-0.007,2.153
					c0.094,2.514,2.02,3.879,4.441,3.146c1.581-0.478,2.681-1.523,3.398-2.979c0.284-0.58,0.513-1.189,0.842-1.963
					c0.763,0.34,1.44,0.645,2.067,0.926c-0.075,3.035-2.666,5.971-5.849,6.759c-4.099,1.022-7.632-1.696-7.674-5.927
					c-0.026-2.689-0.081-5.385,0.021-8.071c0.12-3.144-1.223-5.259-4.091-6.466c-0.217-0.085-0.417-0.214-0.618-0.337
					C111.141,386.186,111.129,386.115,111.029,385.934z"/>
                <path fill="#FFFFFF" d="M219.009,386.016c0.53-0.911,0.973-1.67,1.468-2.522c2.291,0.7,3.773,2.177,5.08,4.216
					c1.676-1.937,3.565-3.41,6.223-3.94c0.352,0.753,0.694,1.485,1.102,2.358c-0.691,0.272-1.295,0.478-1.875,0.741
					c-2.355,1.081-3.809,2.663-3.727,5.514c0.117,4.122-0.029,8.25-0.064,12.375c-0.006,0.472-0.041,0.94-0.07,1.544
					c-0.826,0.19-1.623,0.375-2.561,0.601c-0.041-0.645-0.097-1.163-0.1-1.679c-0.009-3.949-0.117-7.898,0.021-11.842
					c0.108-3.088-1.298-5.104-3.864-6.513C220.184,386.61,219.703,386.376,219.009,386.016z"/>
                <path fill="#FFFFFF" d="M405.727,383.522c0.035,0.683,0.111,1.386,0.111,2.095c0.009,6.393,0.006,12.788,0.006,19.184
					c0,0.117,0,0.24-0.006,0.357c-0.062,1.898-0.568,2.285-2.695,1.945c-0.035-0.322-0.105-0.668-0.105-1.014
					c0.012-6.633,0.029-13.266,0.041-19.898c0-0.305-0.012-0.601,0.012-0.896C403.225,383.684,403.811,383.268,405.727,383.522z"/>
			</g>
            <rect x="252.68" y="395.209" fill="#FFFFFF" width="106.078" height="2.402"/>
		</g>
	</g>
</g>
</svg>
